<svg preserveAspectRatio="none" overflow="visible" style="display: block;" width="39.6" height="39.6" viewBox="0 0 39.6 39.6" fill="none" xmlns="http://www.w3.org/2000/svg">
<g id="Frame 1834399781">
<path id="Subtract" d="M29.7785 5.38034C31.8499 5.22591 34.2024 5.93594 34.2395 8.1528C34.2646 9.65107 32.5538 10.7725 31.052 11.0512C30.1341 11.2216 29.1647 11.2658 28.2209 11.2817C26.0735 11.3565 23.9131 11.3056 21.7658 11.2524C21.4876 11.4482 21.0772 11.9043 20.8391 12.1577C19.333 13.7602 18.2815 15.6316 17.9328 17.7016C17.681 19.1969 17.7135 20.279 17.7141 21.7807L17.717 25.518L17.7219 28.3549C17.7248 29.0297 17.7291 29.6889 17.7971 30.3432C17.9443 31.7573 19.6706 32.5796 20.9709 31.6333C21.3966 31.3492 21.6775 30.9109 21.7395 30.4292C21.9142 29.0719 21.8324 27.5785 21.8293 26.2104L21.8127 17.311C21.8146 16.1465 21.7525 13.7882 21.8967 12.6782C22.2925 12.6784 24.2158 12.5926 24.3684 12.6987L24.3801 12.8706L24.3879 24.4487L24.3889 28.3139C24.3811 29.8355 24.5369 31.5204 23.3635 32.769C21.7276 34.5092 18.7094 34.7386 16.7463 33.2798C14.951 31.9455 15.1238 30.2948 15.1223 28.4292L15.1213 24.6089V21.0307C15.122 20.2292 15.1015 19.3149 15.1858 18.5239C15.512 15.6365 16.818 12.9039 18.9319 10.685C21.6825 7.81413 25.4665 5.69441 29.7785 5.38034ZM30.1125 7.45455C29.6543 7.47007 29.0507 7.5045 28.6057 7.60495C27.4792 7.85937 25.6067 8.52078 24.7629 9.20553L26.2453 9.22213C27.2321 9.21137 30.6057 9.22223 31.3489 8.54147C32.1904 7.76981 30.939 7.4718 30.1125 7.45455Z" fill="black"/>
<path id="Vector" d="M11.795 8.63349C13.6545 8.6016 15.537 8.73645 17.393 8.818C17.904 8.84043 18.4214 8.86859 18.9306 8.91105C18.449 9.30744 17.2805 10.5067 16.9886 11.0117C14.9228 11 10.6114 10.5112 9.00028 11.4796C8.52278 11.7667 8.15704 12.1791 8.05571 12.6903C7.93818 13.2833 7.97474 13.9382 8.3849 14.436C8.86887 15.0233 9.63444 15.29 10.4164 15.406C11.5363 15.4906 12.4447 14.9368 12.6123 16.4991C12.706 17.3727 11.9472 17.4981 11.1512 17.5406C8.21757 17.6821 5.48295 16.2777 5.36509 13.485C5.21756 9.98871 8.2986 8.71679 11.795 8.63349Z" fill="black"/>
</g>
</svg>
