<svg preserveAspectRatio="none" width="100%" height="100%" overflow="visible" style="display: block;" viewBox="0 0 12 12" fill="none" xmlns="http://www.w3.org/2000/svg">
<g id="Box">
<path id="Vector" d="M10.1005 3.00046L1.50046 5.50046L1.05046 4.30047C0.900465 3.75047 1.20046 3.20046 1.70046 3.05046L8.45046 1.05046C9.00046 0.900465 9.55047 1.20046 9.70047 1.70046L10.1005 3.00046Z" stroke="var(--stroke-0, #0A0A0A)" stroke-width="0.7" stroke-linecap="round" stroke-linejoin="round"/>
<path id="Vector_2" d="M3.09961 2.65039L4.64961 4.60039" stroke="var(--stroke-0, #0A0A0A)" stroke-width="0.7" stroke-linecap="round" stroke-linejoin="round"/>
<path id="Vector_3" d="M6.19922 1.7002L7.74922 3.7002" stroke="var(--stroke-0, #0A0A0A)" stroke-width="0.7" stroke-linecap="round" stroke-linejoin="round"/>
<path id="Vector_4" d="M1.5 5.5H10.5V9.5C10.5 9.76522 10.3946 10.0196 10.2071 10.2071C10.0196 10.3946 9.76522 10.5 9.5 10.5H2.5C2.23478 10.5 1.98043 10.3946 1.79289 10.2071C1.60536 10.0196 1.5 9.76522 1.5 9.5V5.5Z" stroke="var(--stroke-0, #0A0A0A)" stroke-width="0.7" stroke-linecap="round" stroke-linejoin="round"/>
</g>
</svg>
