<svg width="358" height="40" viewBox="0 0 358 40" fill="none" xmlns="http://www.w3.org/2000/svg">
<rect width="358" height="40" fill="#1E1E1E"/>
<g id="Buttons">
<path d="M-410 -192V-191H561V-192V-193H-410V-192ZM563 -190H562V1121H563H564V-190H563ZM561 1123V1122H-410V1123V1124H561V1123ZM-412 1121H-411V-190H-412H-413V1121H-412ZM-410 1123V1122C-410.552 1122 -411 1121.55 -411 1121H-412H-413C-413 1122.66 -411.657 1124 -410 1124V1123ZM563 1121H562C562 1121.55 561.552 1122 561 1122V1123V1124C562.657 1124 564 1122.66 564 1121H563ZM561 -192V-191C561.552 -191 562 -190.552 562 -190H563H564C564 -191.657 562.657 -193 561 -193V-192ZM-410 -192V-193C-411.657 -193 -413 -191.657 -413 -190H-412H-411C-411 -190.552 -410.552 -191 -410 -191V-192Z" fill="white" fill-opacity="0.1"/>
<g id="btn">
<rect x="-394.5" y="-167.5" width="780" height="787" rx="4.5" fill="black"/>
<rect x="-394.5" y="-167.5" width="780" height="787" rx="4.5" stroke="#8A38F5" stroke-dasharray="10 5"/>
<g id="Type=Primary, State=Disabled, Size=S">
<rect width="358" height="40" rx="20" fill="white" fill-opacity="0.15"/>
<g id="Button">
<g id="Button_2">
<path id="Button Text" d="M106.548 25C105.791 25 105.199 24.8933 104.772 24.68C104.345 24.4667 104.047 24.1467 103.876 23.72C103.705 23.2933 103.62 22.7653 103.62 22.136V18.568C103.62 17.544 103.849 16.792 104.308 16.312C104.767 15.8213 105.513 15.576 106.548 15.576H111.364C112.1 15.576 112.66 15.6187 113.044 15.704C113.439 15.7787 113.636 15.8587 113.636 15.944L113.316 17.272C113.135 17.24 112.596 17.208 111.7 17.176C110.815 17.1333 109.524 17.112 107.828 17.112H107.012C106.159 17.112 105.732 17.4907 105.732 18.248V22.328C105.732 22.6907 105.823 22.9733 106.004 23.176C106.196 23.368 106.532 23.464 107.012 23.464H107.668C108.692 23.464 109.556 23.4587 110.26 23.448C110.964 23.4267 111.545 23.4107 112.004 23.4V21.224L111.044 21.24L108.948 21.4V19.832H114.1V24.328L114.26 24.664C114.26 24.7493 114.036 24.8293 113.588 24.904C113.14 24.968 112.383 25 111.316 25H106.548ZM116.499 25V15.592H126.451V17.128H118.611V19.336H124.595V20.92H118.611V23.464H126.515L127.155 24.824C127.155 24.8667 127.011 24.9093 126.723 24.952C126.435 24.984 125.939 25 125.235 25H116.499ZM128.909 25V16.872L128.749 15.592H131.053L136.493 21.288L137.117 22.152H137.293V15.592H139.405V25H137.373L131.805 19.208L131.181 18.456H131.021V25H128.909ZM141.968 25V15.592H151.92V17.128H144.08V19.336H150.064V20.92H144.08V23.464H151.984L152.624 24.824C152.624 24.8667 152.48 24.9093 152.192 24.952C151.904 24.984 151.408 25 150.704 25H141.968ZM164.442 25.16C164.015 25.16 163.594 25.096 163.178 24.968C162.772 24.8293 162.308 24.4987 161.786 23.976L160.634 22.824C160.164 22.344 159.647 21.992 159.082 21.768C158.527 21.544 157.828 21.432 156.986 21.432H156.49V25H154.378V16.872L154.218 15.576H161.306C161.988 15.576 162.522 15.6667 162.906 15.848C163.3 16.0293 163.588 16.2693 163.77 16.568C163.962 16.856 164.084 17.1653 164.138 17.496C164.191 17.8267 164.218 18.1413 164.218 18.44V18.744C164.218 18.9787 164.186 19.24 164.122 19.528C164.058 19.816 163.935 20.0987 163.754 20.376C163.572 20.6533 163.311 20.888 162.97 21.08C162.639 21.272 162.202 21.384 161.658 21.416C161.796 21.4907 161.972 21.608 162.186 21.768C162.399 21.9173 162.618 22.0827 162.842 22.264C163.076 22.4453 163.29 22.6107 163.482 22.76C163.674 22.9093 163.823 23.016 163.93 23.08C164.314 23.304 164.655 23.4587 164.954 23.544C165.252 23.6293 165.498 23.6773 165.69 23.688C165.882 23.6987 165.994 23.704 166.026 23.704L165.706 25C165.61 25.032 165.45 25.064 165.226 25.096C165.002 25.1387 164.74 25.16 164.442 25.16ZM158.89 19.976C159.295 19.976 159.658 19.9707 159.978 19.96C160.298 19.9387 160.586 19.9173 160.842 19.896C161.311 19.8427 161.636 19.7147 161.818 19.512C162.01 19.2987 162.106 19.0267 162.106 18.696V18.328C162.106 17.9867 162.015 17.6987 161.834 17.464C161.652 17.2293 161.327 17.112 160.858 17.112H156.49V19.896C156.959 19.928 157.391 19.9493 157.786 19.96C158.18 19.9707 158.548 19.976 158.89 19.976ZM166.188 25L170.876 15.592H174.028L178.7 25H176.236L175.292 22.968H169.564L168.524 25H166.188ZM170.14 21.4H174.7L172.508 17.032H172.348L170.14 21.4ZM181.277 25L181.261 17.112H177.101V15.576H187.565V17.112H183.389V25H181.277ZM189.171 25V15.592H199.123V17.128H191.283V19.336H197.267V20.92H191.283V23.464H199.187L199.827 24.824C199.827 24.8667 199.683 24.9093 199.395 24.952C199.107 24.984 198.611 25 197.907 25H189.171Z" fill="#525252"/>
<g id="Icon / AI_CTA">
<g id="Icon / AI_CTA_2">
<path id="Vector" d="M220.437 23.5C220.348 23.1539 220.167 22.8381 219.915 22.5854C219.662 22.3327 219.346 22.1523 219 22.063L212.865 20.481C212.76 20.4513 212.668 20.3882 212.603 20.3014C212.537 20.2146 212.501 20.1088 212.501 20C212.501 19.8912 212.537 19.7854 212.603 19.6986C212.668 19.6117 212.76 19.5487 212.865 19.519L219 17.936C219.346 17.8468 219.662 17.6666 219.914 17.414C220.167 17.1615 220.348 16.8459 220.437 16.5L222.019 10.365C222.048 10.2599 222.111 10.1673 222.198 10.1014C222.285 10.0354 222.391 9.99975 222.5 9.99975C222.61 9.99975 222.716 10.0354 222.803 10.1014C222.89 10.1673 222.953 10.2599 222.982 10.365L224.563 16.5C224.652 16.8461 224.833 17.1619 225.085 17.4146C225.338 17.6673 225.654 17.8477 226 17.937L232.135 19.518C232.24 19.5471 232.333 19.61 232.4 19.6971C232.466 19.7841 232.502 19.8906 232.502 20C232.502 20.1094 232.466 20.2159 232.4 20.3029C232.333 20.39 232.24 20.4529 232.135 20.482L226 22.063C225.654 22.1523 225.338 22.3327 225.085 22.5854C224.833 22.8381 224.652 23.1539 224.563 23.5L222.981 29.635C222.952 29.7401 222.889 29.8327 222.802 29.8986C222.715 29.9646 222.609 30.0002 222.499 30.0002C222.39 30.0002 222.284 29.9646 222.197 29.8986C222.11 29.8327 222.047 29.7401 222.018 29.635L220.437 23.5Z" fill="#525252" stroke="#525252" stroke-width="1.5" stroke-linecap="round" stroke-linejoin="round"/>
</g>
</g>
</g>
<path id="2" d="M245.14 25V23.448C245.321 23.3307 245.593 23.1547 245.956 22.92C246.329 22.6853 246.74 22.424 247.188 22.136C247.647 21.848 248.111 21.5547 248.58 21.256C249.049 20.9467 249.481 20.6587 249.876 20.392C250.281 20.1147 250.601 19.8853 250.836 19.704C251.177 19.4373 251.412 19.1813 251.54 18.936C251.679 18.68 251.748 18.4293 251.748 18.184V17.864C251.748 17.5973 251.641 17.3787 251.428 17.208C251.215 17.0373 250.863 16.952 250.372 16.952H249.892C249.273 16.952 248.655 16.9733 248.036 17.016C247.417 17.0587 246.863 17.1067 246.372 17.16C245.892 17.2027 245.535 17.24 245.3 17.272L245.14 15.816C245.439 15.7627 245.849 15.704 246.372 15.64C246.895 15.576 247.497 15.5227 248.18 15.48C248.863 15.4373 249.577 15.416 250.324 15.416H250.772C251.444 15.416 251.983 15.496 252.388 15.656C252.793 15.8053 253.103 16.0027 253.316 16.248C253.54 16.4933 253.689 16.7653 253.764 17.064C253.839 17.352 253.876 17.6347 253.876 17.912V18.248C253.876 18.8133 253.689 19.3627 253.316 19.896C252.953 20.4187 252.361 20.9093 251.54 21.368C250.644 21.8587 249.887 22.2747 249.268 22.616C248.66 22.9467 248.223 23.1867 247.956 23.336V23.464H254.356V25H245.14Z" fill="#525252"/>
</g>
</g>
</g>
</g>
<defs><linearGradient id="glassRim" x1="0" y1="0" x2="358" y2="0" gradientUnits="userSpaceOnUse"><stop stop-color="white" stop-opacity="0.25"/><stop offset="0.5" stop-color="white" stop-opacity="0.22"/><stop offset="1" stop-color="white" stop-opacity="0.2"/></linearGradient></defs><rect x="0.5" y="0.5" width="357" height="39" rx="19.5" stroke="url(#glassRim)"/></svg>
